<?xml version="1.0" encoding="utf-8"?>
<!-- Generator: Adobe Illustrator 19.0.0, SVG Export Plug-In . SVG Version: 6.00 Build 0)  -->
<svg version="1.1" id="katman_1" xmlns="http://www.w3.org/2000/svg" xmlns:xlink="http://www.w3.org/1999/xlink" x="0px" y="0px"
	 viewBox="0 0 60 60" style="enable-background:new 0 0 60 60;" xml:space="preserve">
<style type="text/css">
	.st0{fill:url(#XMLID_13_);}
	.st1{fill:url(#XMLID_14_);}
	.st2{fill:url(#XMLID_15_);}
	.st3{fill:url(#XMLID_17_);}
	.st4{fill:url(#XMLID_18_);}
</style>
<g id="XMLID_11_">
	<linearGradient id="XMLID_13_" gradientUnits="userSpaceOnUse" x1="30.0361" y1="50.2333" x2="30.0361" y2="30.6292">
		<stop  offset="0" style="stop-color:#C8AB3D"/>
		<stop  offset="1" style="stop-color:#ECC747"/>
	</linearGradient>
	<path id="XMLID_9_" class="st0" d="M30,50.2c-6.6,0-8.4-8.4-8.4-13.5c0-5.2,4-6.1,8.4-6.1c4.4,0,8.4,0.9,8.4,6.1
		C38.5,41.8,36.7,50.2,30,50.2z"/>
	<linearGradient id="XMLID_14_" gradientUnits="userSpaceOnUse" x1="30.0361" y1="25.4209" x2="30.0361" y2="2.5784">
		<stop  offset="0" style="stop-color:#C8AB3D"/>
		<stop  offset="1" style="stop-color:#ECC747"/>
	</linearGradient>
	<path id="XMLID_8_" class="st1" d="M30,25.4c-4.3,0-6.1-1.1-6.1-3.6c0-3.9-2.7-3.2-3.3-9.6C20,5.5,23.9,2,24.6,2.6
		C25,3.1,19,17.1,30,17.1c11,0,5.1-14,5.5-14.5c0.6-0.6,4.5,2.8,3.9,9.6c-0.6,6.4-3.3,5.7-3.3,9.6C36.1,24.3,34.3,25.4,30,25.4
		L30,25.4z"/>
	<linearGradient id="XMLID_15_" gradientUnits="userSpaceOnUse" x1="30.0362" y1="30.2432" x2="30.0362" y2="25.5584">
		<stop  offset="0" style="stop-color:#866E42"/>
		<stop  offset="1" style="stop-color:#C09A5D"/>
	</linearGradient>
	<path id="XMLID_7_" class="st2" d="M30,26.4c-1.5,0-3.3-0.1-4.7-0.8v4.7c1.8-0.5,3.6-0.5,4.7-0.5c1.1,0,3,0,4.7,0.5v-4.7
		C33.4,26.2,31.6,26.4,30,26.4z"/>
	<linearGradient id="XMLID_17_" gradientUnits="userSpaceOnUse" x1="41.224" y1="57.4216" x2="41.224" y2="15.8618">
		<stop  offset="0" style="stop-color:#866E42"/>
		<stop  offset="1" style="stop-color:#C09A5D"/>
	</linearGradient>
	<path id="XMLID_16_" class="st3" d="M38.3,44c-0.2,0.6-0.4,1.2-0.7,1.8c0,0,0,0.1-0.1,0.1l0.9,2.3l-3.8,8.2c-0.2,0.4,0,0.8,0.3,0.9
		c0.1,0,0.2,0.1,0.3,0.1c0.3,0,0.5-0.2,0.6-0.4l3.9-8.5c0.1-0.2,0.1-0.4,0-0.5L38.3,44z M43.4,37.4c-0.1-0.2-0.2-0.3-0.3-0.4l-3.8-2
		c0.1,0.5,0.1,1,0.1,1.6v0l2.7,1.4l2.8,9.6c0.1,0.3,0.4,0.5,0.7,0.5c0.1,0,0.1,0,0.2,0c0.4-0.1,0.6-0.5,0.5-0.9L43.4,37.4z
		 M47.7,16.1c-0.3-0.3-0.7-0.3-1-0.1l-5.8,5.1c-0.1,0.1-0.2,0.2-0.2,0.3l-2.1,6.4l-3-0.7v1.4l3.3,0.8c0.1,0,0.1,0,0.2,0
		c0.3,0,0.6-0.2,0.7-0.5L42,22l5.6-4.9C47.9,16.8,47.9,16.4,47.7,16.1z"/>
	<linearGradient id="XMLID_18_" gradientUnits="userSpaceOnUse" x1="18.8482" y1="57.4214" x2="18.8482" y2="15.8616">
		<stop  offset="0" style="stop-color:#866E42"/>
		<stop  offset="1" style="stop-color:#C09A5D"/>
	</linearGradient>
	<path id="XMLID_12_" class="st4" d="M21.8,44c0.2,0.6,0.4,1.2,0.7,1.8c0,0,0,0.1,0.1,0.1l-0.9,2.3l3.8,8.2c0.2,0.4,0,0.8-0.3,0.9
		c-0.1,0-0.2,0.1-0.3,0.1c-0.3,0-0.5-0.2-0.6-0.4l-3.9-8.5c-0.1-0.2-0.1-0.4,0-0.5L21.8,44z M16.7,37.4c0.1-0.2,0.2-0.3,0.3-0.4
		l3.8-2c-0.1,0.5-0.1,1-0.1,1.6v0l-2.7,1.4l-2.8,9.6c-0.1,0.3-0.4,0.5-0.7,0.5c-0.1,0-0.1,0-0.2,0c-0.4-0.1-0.6-0.5-0.5-0.9
		L16.7,37.4z M12.4,16.1c0.3-0.3,0.7-0.3,1-0.1l5.8,5.1c0.1,0.1,0.2,0.2,0.2,0.3l2.1,6.4l3-0.7v1.4l-3.3,0.8c-0.1,0-0.1,0-0.2,0
		c-0.3,0-0.6-0.2-0.7-0.5L18.1,22l-5.6-4.9C12.2,16.8,12.1,16.4,12.4,16.1z"/>
</g>
</svg>
